<svg class="main-svg" xmlns="http://www.w3.org/2000/svg" xmlns:xlink="http://www.w3.org/1999/xlink" width="1200" height="600" style="" viewBox="0 0 1200 600"><rect x="0" y="0" width="1200" height="600" style="fill: rgb(255, 255, 255); fill-opacity: 1;"/><defs id="defs-0ea7b3"><g class="clips"><clipPath id="clip0ea7b3xyplot" class="plotclip"><rect width="1152" height="502"/></clipPath><clipPath class="axesclip" id="clip0ea7b3x"><rect x="48" y="0" width="1152" height="600"/></clipPath><clipPath class="axesclip" id="clip0ea7b3y"><rect x="0" y="0" width="1200" height="502"/></clipPath><clipPath class="axesclip" id="clip0ea7b3xy"><rect x="48" y="0" width="1152" height="502"/></clipPath></g><g class="gradients"/><g class="patterns"/></defs><g class="bglayer"/><g class="layer-below"><g class="imagelayer"/><g class="shapelayer"/></g><g class="cartesianlayer"><g class="subplot xy"><g class="layer-subplot"><g class="shapelayer"/><g class="imagelayer"/></g><g class="gridlayer"><g class="x"><path class="xgrid crisp" transform="translate(235.93,0)" d="M0,0v502" style="stroke: rgb(232, 236, 240); stroke-opacity: 1; stroke-width: 1px;"/><path class="xgrid crisp" transform="translate(362.51,0)" d="M0,0v502" style="stroke: rgb(232, 236, 240); stroke-opacity: 1; stroke-width: 1px;"/><path class="xgrid crisp" transform="translate(489.08,0)" d="M0,0v502" style="stroke: rgb(232, 236, 240); stroke-opacity: 1; stroke-width: 1px;"/><path class="xgrid crisp" transform="translate(615.66,0)" d="M0,0v502" style="stroke: rgb(232, 236, 240); stroke-opacity: 1; stroke-width: 1px;"/><path class="xgrid crisp" transform="translate(742.24,0)" d="M0,0v502" style="stroke: rgb(232, 236, 240); stroke-opacity: 1; stroke-width: 1px;"/><path class="xgrid crisp" transform="translate(868.82,0)" d="M0,0v502" style="stroke: rgb(232, 236, 240); stroke-opacity: 1; stroke-width: 1px;"/><path class="xgrid crisp" transform="translate(995.4,0)" d="M0,0v502" style="stroke: rgb(232, 236, 240); stroke-opacity: 1; stroke-width: 1px;"/><path class="xgrid crisp" transform="translate(1121.97,0)" d="M0,0v502" style="stroke: rgb(232, 236, 240); stroke-opacity: 1; stroke-width: 1px;"/></g><g class="y"><path class="ygrid crisp" transform="translate(0,453.11)" d="M48,0h1152" style="stroke: rgb(232, 236, 240); stroke-opacity: 1; stroke-width: 1px;"/><path class="ygrid crisp" transform="translate(0,384.27)" d="M48,0h1152" style="stroke: rgb(232, 236, 240); stroke-opacity: 1; stroke-width: 1px;"/><path class="ygrid crisp" transform="translate(0,315.43)" d="M48,0h1152" style="stroke: rgb(232, 236, 240); stroke-opacity: 1; stroke-width: 1px;"/><path class="ygrid crisp" transform="translate(0,246.59)" d="M48,0h1152" style="stroke: rgb(232, 236, 240); stroke-opacity: 1; stroke-width: 1px;"/><path class="ygrid crisp" transform="translate(0,177.76)" d="M48,0h1152" style="stroke: rgb(232, 236, 240); stroke-opacity: 1; stroke-width: 1px;"/><path class="ygrid crisp" transform="translate(0,108.92)" d="M48,0h1152" style="stroke: rgb(232, 236, 240); stroke-opacity: 1; stroke-width: 1px;"/><path class="ygrid crisp" transform="translate(0,40.08)" d="M48,0h1152" style="stroke: rgb(232, 236, 240); stroke-opacity: 1; stroke-width: 1px;"/></g></g><g class="zerolinelayer"><path class="xzl zl crisp" transform="translate(109.35,0)" d="M0,0v502" style="stroke: rgb(68, 68, 68); stroke-opacity: 1; stroke-width: 1px;"/></g><path class="xlines-below"/><path class="ylines-below"/><g class="overlines-below"/><g class="xaxislayer-below"/><g class="yaxislayer-below"/><g class="overaxes-below"/><g class="plot" transform="translate(48,0)" clip-path="url(#clip0ea7b3xyplot)"><g class="scatterlayer mlayer"><g class="trace scatter tracee56f79" style="stroke-miterlimit: 2; opacity: 1;"><g class="fills"/><g class="errorbars"/><g class="lines"/><g class="points"><path class="point" transform="translate(61.35,28.85)" d="M3,0A3,3 0 1,1 0,-3A3,3 0 0,1 3,0Z" style="opacity: 1; stroke-width: 0px; fill: rgb(31, 39, 45); fill-opacity: 1;"/></g><g class="text"/></g><g class="trace scatter trace292f06" style="stroke-miterlimit: 2; opacity: 1;"><g class="fills"/><g class="errorbars"/><g class="lines"/><g class="points"><path class="point" transform="translate(61.35,28.85)" d="M3,0A3,3 0 1,1 0,-3A3,3 0 0,1 3,0Z" style="opacity: 1; stroke-width: 0px; fill: rgb(31, 39, 45); fill-opacity: 0.14902;"/></g><g class="text"/></g><g class="trace scatter trace1e80ec" style="stroke-miterlimit: 2; opacity: 1;"><g class="fills"/><g class="errorbars"/><g class="lines"><path class="js-line" d="M61.35,421.97L62.34,363.75L63.03,359.6L65.33,315.98L65.86,315.98L66.42,314.14L66.96,272.36L68.73,272.78L69.29,272.78L69.86,272.78L70.37,232.58L71.57,216.72L72.12,214.97L73.93,213.54L74.59,213.54L75.17,213.54L75.71,193.75L76.87,190.69L77.55,190.69L85.39,190.69L86,179.66L87.28,165.63L87.88,150.32L89.16,145.86L89.82,145.86L145.79,145.86L146.38,143.28L147.59,139.86L148.24,139.64L193.43,139.64L194.08,131.56L196.63,117.01L197.28,116.78L198.51,116.15L199.16,116.15L238.86,116.15L239.54,114.52L240.91,113.85L241.67,113.85L511.23,113.85L511.86,92.86L513.14,79.81L513.71,79.41L704.99,79.41L705.67,59.96L707.57,29.73L708.27,28.32L709.69,28.85L710.4,28.85L1152,28.85" style="vector-effect: non-scaling-stroke; fill: none; stroke: rgb(138, 99, 191); stroke-opacity: 1; stroke-width: 2px; opacity: 1;"/></g><g class="points"/><g class="text"/></g><g class="trace scatter tracee0a15e" style="stroke-miterlimit: 2; opacity: 1;"><g class="fills"/><g class="errorbars"/><g class="lines"><path class="js-line" d="M61.35,421.97L62.34,363.75L63.03,359.6L65.33,315.98L65.86,315.98L66.42,314.14L66.96,272.36L68.73,272.78L69.29,272.78L69.86,272.78L70.37,232.58L71.57,216.72L72.12,214.97L73.93,213.54L74.59,213.54L75.17,213.54L75.71,193.75L76.87,190.69L77.55,190.69L85.39,190.69L86,179.66L87.28,165.63L87.88,150.32L89.16,145.86L89.82,145.86L145.79,145.86L146.38,143.28L147.59,139.86L148.24,139.64L193.43,139.64L194.08,131.56L196.63,117.01L197.28,116.78L198.51,116.15L199.16,116.15L238.86,116.15L239.54,114.52L240.91,113.85L241.67,113.85L511.23,113.85L511.86,92.86L513.14,79.81L513.71,79.41L704.99,79.41L705.67,59.96L707.57,29.73L708.27,28.32L709.69,28.85L710.4,28.85L1152,28.85" style="vector-effect: non-scaling-stroke; fill: none; stroke: rgb(138, 99, 191); stroke-opacity: 0.14902; stroke-width: 2px; opacity: 1;"/></g><g class="points"/><g class="text"/></g><g class="trace scatter tracea71c1f" style="stroke-miterlimit: 2; opacity: 1;"><g class="fills"/><g class="errorbars"/><g class="lines"/><g class="points"><path class="point" transform="translate(61.35,473.15)" d="M3,0A3,3 0 1,1 0,-3A3,3 0 0,1 3,0Z" style="opacity: 1; stroke-width: 0px; fill: rgb(250, 203, 102); fill-opacity: 1;"/></g><g class="text"/></g><g class="trace scatter trace8cdf76" style="stroke-miterlimit: 2; opacity: 1;"><g class="fills"/><g class="errorbars"/><g class="lines"/><g class="points"><path class="point" transform="translate(61.35,473.15)" d="M3,0A3,3 0 1,1 0,-3A3,3 0 0,1 3,0Z" style="opacity: 1; stroke-width: 0px; fill: rgb(250, 203, 102); fill-opacity: 0.14902;"/></g><g class="text"/></g></g></g><g class="overplot"/><path class="xlines-above crisp" d="M0,0" style="fill: none;"/><path class="ylines-above crisp" d="M0,0" style="fill: none;"/><g class="overlines-above"/><g class="xaxislayer-above"><g class="xtick"><text text-anchor="middle" x="0" y="514" transform="translate(109.35,0)" style="font-family: 'Open Sans', verdana, arial, sans-serif; font-size: 11px; fill: rgb(95, 114, 129); fill-opacity: 1; white-space: pre; opacity: 1;">0</text></g><g class="xtick"><text text-anchor="middle" x="0" y="514" style="font-family: 'Open Sans', verdana, arial, sans-serif; font-size: 11px; fill: rgb(95, 114, 129); fill-opacity: 1; white-space: pre; opacity: 1;" transform="translate(235.93,0)">1000</text></g><g class="xtick"><text text-anchor="middle" x="0" y="514" style="font-family: 'Open Sans', verdana, arial, sans-serif; font-size: 11px; fill: rgb(95, 114, 129); fill-opacity: 1; white-space: pre; opacity: 1;" transform="translate(362.51,0)">2000</text></g><g class="xtick"><text text-anchor="middle" x="0" y="514" style="font-family: 'Open Sans', verdana, arial, sans-serif; font-size: 11px; fill: rgb(95, 114, 129); fill-opacity: 1; white-space: pre; opacity: 1;" transform="translate(489.08,0)">3000</text></g><g class="xtick"><text text-anchor="middle" x="0" y="514" style="font-family: 'Open Sans', verdana, arial, sans-serif; font-size: 11px; fill: rgb(95, 114, 129); fill-opacity: 1; white-space: pre; opacity: 1;" transform="translate(615.66,0)">4000</text></g><g class="xtick"><text text-anchor="middle" x="0" y="514" style="font-family: 'Open Sans', verdana, arial, sans-serif; font-size: 11px; fill: rgb(95, 114, 129); fill-opacity: 1; white-space: pre; opacity: 1;" transform="translate(742.24,0)">5000</text></g><g class="xtick"><text text-anchor="middle" x="0" y="514" style="font-family: 'Open Sans', verdana, arial, sans-serif; font-size: 11px; fill: rgb(95, 114, 129); fill-opacity: 1; white-space: pre; opacity: 1;" transform="translate(868.82,0)">6000</text></g><g class="xtick"><text text-anchor="middle" x="0" y="514" style="font-family: 'Open Sans', verdana, arial, sans-serif; font-size: 11px; fill: rgb(95, 114, 129); fill-opacity: 1; white-space: pre; opacity: 1;" transform="translate(995.4,0)">7000</text></g><g class="xtick"><text text-anchor="middle" x="0" y="514" style="font-family: 'Open Sans', verdana, arial, sans-serif; font-size: 11px; fill: rgb(95, 114, 129); fill-opacity: 1; white-space: pre; opacity: 1;" transform="translate(1121.97,0)">8000</text></g></g><g class="yaxislayer-above"><g class="ytick"><text text-anchor="end" x="47" y="3.8499999999999996" transform="translate(0,453.11)" style="font-family: 'Open Sans', verdana, arial, sans-serif; font-size: 11px; fill: rgb(95, 114, 129); fill-opacity: 1; white-space: pre; opacity: 1;">600</text></g><g class="ytick"><text text-anchor="end" x="47" y="3.8499999999999996" style="font-family: 'Open Sans', verdana, arial, sans-serif; font-size: 11px; fill: rgb(95, 114, 129); fill-opacity: 1; white-space: pre; opacity: 1;" transform="translate(0,384.27)">800</text></g><g class="ytick"><text text-anchor="end" x="47" y="3.8499999999999996" style="font-family: 'Open Sans', verdana, arial, sans-serif; font-size: 11px; fill: rgb(95, 114, 129); fill-opacity: 1; white-space: pre; opacity: 1;" transform="translate(0,315.43)">1000</text></g><g class="ytick"><text text-anchor="end" x="47" y="3.8499999999999996" style="font-family: 'Open Sans', verdana, arial, sans-serif; font-size: 11px; fill: rgb(95, 114, 129); fill-opacity: 1; white-space: pre; opacity: 1;" transform="translate(0,246.59)">1200</text></g><g class="ytick"><text text-anchor="end" x="47" y="3.8499999999999996" style="font-family: 'Open Sans', verdana, arial, sans-serif; font-size: 11px; fill: rgb(95, 114, 129); fill-opacity: 1; white-space: pre; opacity: 1;" transform="translate(0,177.76)">1400</text></g><g class="ytick"><text text-anchor="end" x="47" y="3.8499999999999996" style="font-family: 'Open Sans', verdana, arial, sans-serif; font-size: 11px; fill: rgb(95, 114, 129); fill-opacity: 1; white-space: pre; opacity: 1;" transform="translate(0,108.92)">1600</text></g><g class="ytick"><text text-anchor="end" x="47" y="3.8499999999999996" style="font-family: 'Open Sans', verdana, arial, sans-serif; font-size: 11px; fill: rgb(95, 114, 129); fill-opacity: 1; white-space: pre; opacity: 1;" transform="translate(0,40.08)">1800</text></g></g><g class="overaxes-above"/></g></g><g class="polarlayer"/><g class="ternarylayer"/><g class="geolayer"/><g class="funnelarealayer"/><g class="pielayer"/><g class="iciclelayer"/><g class="treemaplayer"/><g class="sunburstlayer"/><g class="glimages"/><defs id="topdefs-0ea7b3"><g class="clips"/><clipPath id="legend0ea7b3"><rect width="1041" height="48" x="0" y="0"/></clipPath></defs><g class="layer-above"><g class="imagelayer"/><g class="shapelayer"/></g><g class="infolayer"><g class="legend" pointer-events="all" transform="translate(48,552)"><rect class="bg" shape-rendering="crispEdges" style="stroke: rgb(68, 68, 68); stroke-opacity: 1; fill: rgb(255, 255, 255); fill-opacity: 1; stroke-width: 0px;" width="1041" height="48" x="0" y="0"/><g class="scrollbox" transform="" clip-path="url(#legend0ea7b3)"><g class="groups"><g class="traces" transform="translate(0,14.5)" style="opacity: 1;"><text class="legendtext" text-anchor="start" x="40" y="4.680000000000001" style="font-family: 'Open Sans', verdana, arial, sans-serif; font-size: 12px; fill: rgb(17, 23, 28); fill-opacity: 1; white-space: pre;">neuro-ga_run-09_date-2026-05-03</text><g class="layers" style="opacity: 1;"><g class="legendfill"/><g class="legendlines"><path class="js-line" d="M5,0h30" style="fill: none; stroke: rgb(31, 39, 45); stroke-opacity: 1; stroke-width: 2px;"/></g><g class="legendsymbols"><g class="legendpoints"><path class="scatterpts" transform="translate(20,0)" d="M3,0A3,3 0 1,1 0,-3A3,3 0 0,1 3,0Z" style="opacity: 1; stroke-width: 0px; fill: rgb(31, 39, 45); fill-opacity: 1;"/></g></g></g><rect class="legendtoggle" x="0" y="-9.5" width="257.58750915527344" height="19" style="fill: rgb(0, 0, 0); fill-opacity: 0;"/></g><g class="traces" transform="translate(260.08750915527344,14.5)" style="opacity: 1;"><text class="legendtext" text-anchor="start" x="40" y="4.680000000000001" style="font-family: 'Open Sans', verdana, arial, sans-serif; font-size: 12px; fill: rgb(17, 23, 28); fill-opacity: 1; white-space: pre;">neuro-ga_run-09_date-2026-05-03</text><g class="layers" style="opacity: 1;"><g class="legendfill"/><g class="legendlines"><path class="js-line" d="M5,0h30" style="fill: none; stroke: rgb(31, 39, 45); stroke-opacity: 0.14902; stroke-width: 2px;"/></g><g class="legendsymbols"><g class="legendpoints"><path class="scatterpts" transform="translate(20,0)" d="M3,0A3,3 0 1,1 0,-3A3,3 0 0,1 3,0Z" style="opacity: 1; stroke-width: 0px; fill: rgb(31, 39, 45); fill-opacity: 0.14902;"/></g></g></g><rect class="legendtoggle" x="0" y="-9.5" width="257.58750915527344" height="19" style="fill: rgb(0, 0, 0); fill-opacity: 0;"/></g><g class="traces" transform="translate(520.1750183105469,14.5)" style="opacity: 1;"><text class="legendtext" text-anchor="start" x="40" y="4.680000000000001" style="font-family: 'Open Sans', verdana, arial, sans-serif; font-size: 12px; fill: rgb(17, 23, 28); fill-opacity: 1; white-space: pre;">neuro-ga_run-08_date-2026-05-03</text><g class="layers" style="opacity: 1;"><g class="legendfill"/><g class="legendlines"><path class="js-line" d="M5,0h30" style="fill: none; stroke: rgb(138, 99, 191); stroke-opacity: 1; stroke-width: 2px;"/></g><g class="legendsymbols"><g class="legendpoints"/></g></g><rect class="legendtoggle" x="0" y="-9.5" width="257.58750915527344" height="19" style="fill: rgb(0, 0, 0); fill-opacity: 0;"/></g><g class="traces" transform="translate(780.2625274658203,14.5)" style="opacity: 1;"><text class="legendtext" text-anchor="start" x="40" y="4.680000000000001" style="font-family: 'Open Sans', verdana, arial, sans-serif; font-size: 12px; fill: rgb(17, 23, 28); fill-opacity: 1; white-space: pre;">neuro-ga_run-08_date-2026-05-03</text><g class="layers" style="opacity: 1;"><g class="legendfill"/><g class="legendlines"><path class="js-line" d="M5,0h30" style="fill: none; stroke: rgb(138, 99, 191); stroke-opacity: 0.14902; stroke-width: 2px;"/></g><g class="legendsymbols"><g class="legendpoints"/></g></g><rect class="legendtoggle" x="0" y="-9.5" width="257.58750915527344" height="19" style="fill: rgb(0, 0, 0); fill-opacity: 0;"/></g><g class="traces" transform="translate(0,33.5)" style="opacity: 1;"><text class="legendtext" text-anchor="start" x="40" y="4.680000000000001" style="font-family: 'Open Sans', verdana, arial, sans-serif; font-size: 12px; fill: rgb(17, 23, 28); fill-opacity: 1; white-space: pre;">neuro-ga_run-07_date-2026-05-03</text><g class="layers" style="opacity: 1;"><g class="legendfill"/><g class="legendlines"><path class="js-line" d="M5,0h30" style="fill: none; stroke: rgb(250, 203, 102); stroke-opacity: 1; stroke-width: 2px;"/></g><g class="legendsymbols"><g class="legendpoints"><path class="scatterpts" transform="translate(20,0)" d="M3,0A3,3 0 1,1 0,-3A3,3 0 0,1 3,0Z" style="opacity: 1; stroke-width: 0px; fill: rgb(250, 203, 102); fill-opacity: 1;"/></g></g></g><rect class="legendtoggle" x="0" y="-9.5" width="257.58750915527344" height="19" style="fill: rgb(0, 0, 0); fill-opacity: 0;"/></g><g class="traces" transform="translate(260.08750915527344,33.5)" style="opacity: 1;"><text class="legendtext" text-anchor="start" x="40" y="4.680000000000001" style="font-family: 'Open Sans', verdana, arial, sans-serif; font-size: 12px; fill: rgb(17, 23, 28); fill-opacity: 1; white-space: pre;">neuro-ga_run-07_date-2026-05-03</text><g class="layers" style="opacity: 1;"><g class="legendfill"/><g class="legendlines"><path class="js-line" d="M5,0h30" style="fill: none; stroke: rgb(250, 203, 102); stroke-opacity: 0.14902; stroke-width: 2px;"/></g><g class="legendsymbols"><g class="legendpoints"><path class="scatterpts" transform="translate(20,0)" d="M3,0A3,3 0 1,1 0,-3A3,3 0 0,1 3,0Z" style="opacity: 1; stroke-width: 0px; fill: rgb(250, 203, 102); fill-opacity: 0.14902;"/></g></g></g><rect class="legendtoggle" x="0" y="-9.5" width="257.58750915527344" height="19" style="fill: rgb(0, 0, 0); fill-opacity: 0;"/></g></g></g><rect class="scrollbar" rx="20" ry="3" width="0" height="0" style="fill: rgb(128, 139, 164); fill-opacity: 1;" x="0" y="0"/></g><g class="g-gtitle"/><g class="g-xtitle"><text class="xtitle" x="624" y="554" text-anchor="middle" style="font-family: 'Open Sans', verdana, arial, sans-serif; font-size: 14px; fill: rgb(17, 23, 28); opacity: 1; font-weight: normal; white-space: pre;">Relative Time</text></g><g class="g-ytitle"/></g></svg>